<svg id="visual" viewBox="0 0 900 600" width="900" height="600" xmlns="http://www.w3.org/2000/svg" xmlns:xlink="http://www.w3.org/1999/xlink" version="1.1"><rect x="0" y="0" width="900" height="600" fill="#5550ff"></rect><path d="M215 0L248.8 25C282.7 50 350.3 100 328.2 150C306 200 194 250 136.8 300C79.7 350 77.3 400 86.7 450C96 500 117 550 127.5 575L138 600L0 600L0 575C0 550 0 500 0 450C0 400 0 350 0 300C0 250 0 200 0 150C0 100 0 50 0 25L0 0Z" fill="#f9f9f9" stroke-linecap="round" stroke-linejoin="miter"></path></svg>